<mxfile host="app.diagrams.net" modified="2023-04-06T22:12:41.346Z" agent="Mozilla/5.0 (Windows NT 10.0; Win64; x64) AppleWebKit/537.36 (KHTML, like Gecko) Chrome/112.0.0.0 Safari/537.36" etag="j7DsW4kPUAr8szoVnrXT" version="21.1.4" type="device">
  <diagram name="Page-1" id="SiP6dLO_JDL3ns6yXh1z">
    <mxGraphModel dx="817" dy="436" grid="1" gridSize="10" guides="1" tooltips="1" connect="1" arrows="1" fold="1" page="1" pageScale="1" pageWidth="850" pageHeight="1100" math="0" shadow="0">
      <root>
        <mxCell id="0" />
        <mxCell id="1" parent="0" />
        <mxCell id="PjqmpCo5q-oPvErXvVIe-3" value="" style="edgeStyle=orthogonalEdgeStyle;rounded=0;orthogonalLoop=1;jettySize=auto;html=1;labelBackgroundColor=none;strokeColor=#000000;fontColor=default;" edge="1" parent="1" source="PjqmpCo5q-oPvErXvVIe-1" target="PjqmpCo5q-oPvErXvVIe-2">
          <mxGeometry relative="1" as="geometry">
            <Array as="points">
              <mxPoint x="540" y="580" />
              <mxPoint x="540" y="580" />
            </Array>
          </mxGeometry>
        </mxCell>
        <mxCell id="PjqmpCo5q-oPvErXvVIe-1" value="&lt;b&gt;EAZ CASTING&lt;/b&gt;" style="ellipse;whiteSpace=wrap;html=1;aspect=fixed;rounded=0;labelBackgroundColor=none;fillColor=#FFFFCC;strokeColor=#000000;fontColor=#143642;" vertex="1" parent="1">
          <mxGeometry x="365" y="490" width="120" height="120" as="geometry" />
        </mxCell>
        <mxCell id="PjqmpCo5q-oPvErXvVIe-2" value="&lt;b&gt;USER&lt;/b&gt;" style="whiteSpace=wrap;html=1;rounded=0;labelBackgroundColor=none;fillColor=#FFFFCC;strokeColor=#000000;fontColor=#143642;" vertex="1" parent="1">
          <mxGeometry x="640" y="510" width="150" height="80" as="geometry" />
        </mxCell>
        <mxCell id="PjqmpCo5q-oPvErXvVIe-7" value="" style="edgeStyle=orthogonalEdgeStyle;rounded=0;orthogonalLoop=1;jettySize=auto;html=1;entryX=1.011;entryY=0.881;entryDx=0;entryDy=0;entryPerimeter=0;labelBackgroundColor=none;strokeColor=#000000;fontColor=default;" edge="1" parent="1" source="PjqmpCo5q-oPvErXvVIe-1" target="PjqmpCo5q-oPvErXvVIe-5">
          <mxGeometry relative="1" as="geometry">
            <mxPoint x="330" y="650" as="sourcePoint" />
            <mxPoint x="365" y="570" as="targetPoint" />
            <Array as="points">
              <mxPoint x="330" y="580" />
            </Array>
          </mxGeometry>
        </mxCell>
        <mxCell id="PjqmpCo5q-oPvErXvVIe-5" value="&lt;b&gt;ADMIN&lt;/b&gt;" style="whiteSpace=wrap;html=1;rounded=0;labelBackgroundColor=none;fillColor=#FFFFCC;strokeColor=#000000;fontColor=#143642;" vertex="1" parent="1">
          <mxGeometry x="60" y="510" width="150" height="80" as="geometry" />
        </mxCell>
        <mxCell id="PjqmpCo5q-oPvErXvVIe-8" value="" style="endArrow=classic;html=1;rounded=0;exitX=0.999;exitY=0.27;exitDx=0;exitDy=0;exitPerimeter=0;entryX=0.013;entryY=0.343;entryDx=0;entryDy=0;entryPerimeter=0;labelBackgroundColor=none;strokeColor=#000000;fontColor=default;" edge="1" parent="1" source="PjqmpCo5q-oPvErXvVIe-5" target="PjqmpCo5q-oPvErXvVIe-1">
          <mxGeometry width="50" height="50" relative="1" as="geometry">
            <mxPoint x="219.99999999999994" y="530" as="sourcePoint" />
            <mxPoint x="372.54" y="532.68" as="targetPoint" />
          </mxGeometry>
        </mxCell>
        <mxCell id="PjqmpCo5q-oPvErXvVIe-12" value="" style="edgeStyle=orthogonalEdgeStyle;rounded=0;orthogonalLoop=1;jettySize=auto;html=1;entryX=0.982;entryY=0.327;entryDx=0;entryDy=0;entryPerimeter=0;labelBackgroundColor=none;strokeColor=#000000;fontColor=default;" edge="1" parent="1" target="PjqmpCo5q-oPvErXvVIe-1">
          <mxGeometry relative="1" as="geometry">
            <mxPoint x="640" y="530" as="sourcePoint" />
            <mxPoint x="490" y="530" as="targetPoint" />
            <Array as="points" />
          </mxGeometry>
        </mxCell>
        <mxCell id="PjqmpCo5q-oPvErXvVIe-15" value="Log In Details" style="text;html=1;strokeColor=none;fillColor=none;align=center;verticalAlign=middle;whiteSpace=wrap;rounded=0;labelBackgroundColor=none;fontColor=#143642;" vertex="1" parent="1">
          <mxGeometry x="521.5" y="500" width="80" height="30" as="geometry" />
        </mxCell>
        <mxCell id="PjqmpCo5q-oPvErXvVIe-17" value="Database For User Created&amp;nbsp;" style="text;html=1;strokeColor=none;fillColor=none;align=center;verticalAlign=middle;whiteSpace=wrap;rounded=0;labelBackgroundColor=none;fontColor=#143642;" vertex="1" parent="1">
          <mxGeometry x="240" y="495" width="100" height="30" as="geometry" />
        </mxCell>
        <mxCell id="PjqmpCo5q-oPvErXvVIe-20" value="Management Of Logged in User&#39;s Data" style="text;html=1;strokeColor=none;fillColor=none;align=center;verticalAlign=middle;whiteSpace=wrap;rounded=0;labelBackgroundColor=none;fontColor=#143642;" vertex="1" parent="1">
          <mxGeometry x="240" y="595" width="100" height="30" as="geometry" />
        </mxCell>
        <mxCell id="PjqmpCo5q-oPvErXvVIe-21" value="Moves To Website For Guidance Of Eaz Casting After Log In" style="text;html=1;align=center;verticalAlign=middle;whiteSpace=wrap;rounded=0;labelBackgroundColor=none;" vertex="1" parent="1">
          <mxGeometry x="494" y="591" width="135" height="30" as="geometry" />
        </mxCell>
      </root>
    </mxGraphModel>
  </diagram>
</mxfile>
